<svg xmlns="http://www.w3.org/2000/svg" viewBox="0 0 8.63 7.97"><defs><style>.cls-1{fill:#606060;}</style></defs><g id="Слой_2" data-name="Слой 2"><g id="Слой_1-2" data-name="Слой 1"><path class="cls-1" d="M8.39.59,8,.2A.8.8,0,0,0,6.87.27L2.34,4.82a1.32,1.32,0,0,0-.29.42L1.6,6.48a.49.49,0,0,0,.11.4A.45.45,0,0,0,2,7h.12l1.21-.45a1.16,1.16,0,0,0,.44-.27L8.32,1.73A.82.82,0,0,0,8.39.59M3.58,6.05a1,1,0,0,1-.33.21l-1.2.43a.13.13,0,0,1-.1,0s-.05-.09,0-.1l.43-1.21A1,1,0,0,1,2.56,5L6.7.9l1,1ZM8.11,1.52l-.18.21-1-1L7.09.54A.7.7,0,0,1,7.52.35a.39.39,0,0,1,.26.1l.4.39a.5.5,0,0,1-.07.68"/><path class="cls-1" d="M8.46,8H.16A.15.15,0,0,1,0,7.81a.16.16,0,0,1,.16-.17h8.3a.18.18,0,0,1,.17.17A.17.17,0,0,1,8.46,8"/></g></g></svg>