<svg xmlns="http://www.w3.org/2000/svg" viewBox="0 0 31.34 31.34"><defs><style>.cls-1{fill:#00237e;}.cls-2{fill:#fff;}</style></defs><g id="Слой_2" data-name="Слой 2"><g id="Слой_1-2" data-name="Слой 1"><path class="cls-1" d="M31.34,15.67A15.67,15.67,0,1,1,15.67,0,15.68,15.68,0,0,1,31.34,15.67"/><path class="cls-2" d="M24.19,15.67A1.21,1.21,0,0,1,23,16.88H11.29l4,4a1.22,1.22,0,0,1-1.72,1.74h0L7.48,16.53a1.41,1.41,0,0,1-.25-.4,1.25,1.25,0,0,1,0-.93,1.56,1.56,0,0,1,.25-.4l6.11-6.1a1.21,1.21,0,0,1,1.72,0,1.24,1.24,0,0,1,0,1.75l-4,4H23a1.22,1.22,0,0,1,1.21,1.23"/></g></g></svg>