<svg xmlns="http://www.w3.org/2000/svg" viewBox="0 0 9.4 9.42"><defs><style>.cls-1{fill:#02c463;}.cls-2{fill:#fff;}</style></defs><g id="Слой_2" data-name="Слой 2"><g id="Слой_1-2" data-name="Слой 1"><path class="cls-1" d="M0,4.71A4.7,4.7,0,1,1,4.71,9.42,4.71,4.71,0,0,1,0,4.71"/><path class="cls-2" d="M5.29,2.32,5.13,5.8a.38.38,0,0,1-.42.39.42.42,0,0,1-.43-.39L4.13,2.32a.58.58,0,1,1,1.16,0"/><path class="cls-2" d="M5.2,7.21a.49.49,0,0,1-.49.49.5.5,0,0,1-.5-.49.51.51,0,0,1,.5-.5.5.5,0,0,1,.49.5"/></g></g></svg>