<svg xmlns="http://www.w3.org/2000/svg" viewBox="0 0 7.72 7.73"><defs><style>.cls-1{fill:#ababb7;}</style></defs><g id="Слой_2" data-name="Слой 2"><g id="Слой_1-2" data-name="Слой 1"><path class="cls-1" d="M6.76.77H6V.19A.19.19,0,0,0,5.84,0a.19.19,0,0,0-.19.19V.77H4.05V.19A.2.2,0,0,0,3.86,0a.21.21,0,0,0-.2.19V.77H2.08V.19A.21.21,0,0,0,1.88,0a.2.2,0,0,0-.19.19V.77H1a.94.94,0,0,0-.95,1V6.78a1,1,0,0,0,1,1H6.76a1,1,0,0,0,1-1V1.72a1,1,0,0,0-1-.95M1,1.14h.74v.34a.2.2,0,0,0,.19.19.21.21,0,0,0,.2-.19V1.14H3.66v.34a.21.21,0,0,0,.2.19.2.2,0,0,0,.19-.19V1.14h1.6v.34a.19.19,0,1,0,.37,0V1.14h.74a.58.58,0,0,1,.59.58v.49h-7V1.72A.57.57,0,0,1,1,1.14M6.76,7.35H1a.56.56,0,0,1-.57-.57V2.58h7v4.2a.57.57,0,0,1-.59.57m-4.4-2H1.41a.19.19,0,0,0-.19.19v1a.19.19,0,0,0,.19.19h1a.2.2,0,0,0,.19-.19v-1a.2.2,0,0,0-.19-.19m-.19,1H1.59V5.68h.58Zm4.14-1H5.36a.2.2,0,0,0-.19.19v1a.2.2,0,0,0,.19.19h.95a.2.2,0,0,0,.19-.19v-1a.2.2,0,0,0-.19-.19m-.19,1H5.55V5.68h.57Zm-1.79-1h-1a.19.19,0,0,0-.18.19v1a.19.19,0,0,0,.18.19h1a.19.19,0,0,0,.19-.19v-1a.19.19,0,0,0-.19-.19m-.18,1H3.56V5.68h.59ZM6.31,3.31H5.36a.19.19,0,0,0-.19.19v1a.2.2,0,0,0,.19.19h.95a.2.2,0,0,0,.19-.19v-1a.19.19,0,0,0-.19-.19m-.19.95H5.55V3.68h.57ZM4.33,3.31h-1a.18.18,0,0,0-.18.19v1a.19.19,0,0,0,.18.19h1a.19.19,0,0,0,.19-.19v-1a.18.18,0,0,0-.19-.19m-.18.95H3.56V3.68h.59ZM2.36,3.31H1.41a.18.18,0,0,0-.19.19v1a.19.19,0,0,0,.19.19h1a.2.2,0,0,0,.19-.19v-1a.19.19,0,0,0-.19-.19m-.19.95H1.59V3.68h.58Z"/></g></g></svg>