<svg xmlns="http://www.w3.org/2000/svg" viewBox="0 0 9.36 9.37"><defs><style>.cls-1{fill:#00237e;}</style></defs><g id="Слой_2" data-name="Слой 2"><g id="Слой_1-2" data-name="Слой 1"><path class="cls-1" d="M4.68,9.37A4.69,4.69,0,1,1,9.36,4.69,4.69,4.69,0,0,1,4.68,9.37m0-9.14A4.46,4.46,0,1,0,9.14,4.69,4.46,4.46,0,0,0,4.68.23"/><path class="cls-1" d="M4.21,5.73a1.81,1.81,0,0,1,.1-.65,1.65,1.65,0,0,1,.23-.46,5.36,5.36,0,0,1,.37-.45l.26-.26a1.64,1.64,0,0,0,.29-.41,1.1,1.1,0,0,0,.09-.39.63.63,0,0,0-.24-.5.81.81,0,0,0-.62-.22,1.38,1.38,0,0,0-.59.12,1.51,1.51,0,0,0-.49.37L3.3,2.53a2.19,2.19,0,0,1,.64-.46,1.83,1.83,0,0,1,.77-.14,1.49,1.49,0,0,1,.73.16,1.18,1.18,0,0,1,.47.44,1.11,1.11,0,0,1,.15.55A1.3,1.3,0,0,1,6,3.57,1.75,1.75,0,0,1,5.71,4l-.48.55a3.51,3.51,0,0,0-.42.55,1.58,1.58,0,0,0-.12.67,1.83,1.83,0,0,0,0,.32H4.23a2.87,2.87,0,0,1,0-.35m0,1.62a.39.39,0,0,1,0-.54.35.35,0,0,1,.26-.1.37.37,0,0,1,.27.64.42.42,0,0,1-.27.09.39.39,0,0,1-.26-.09"/></g></g></svg>